# xmcd CD database file
#
# Track frame offsets:
#	150
#	12602
#	23485
#	35180
#	50467
#	60325
#	71402
#	83255
#	97642
#	109215
#	120020
#	129920
#	142770
#	154030
#
# Disc length: 2183 seconds
#
# Revision: 0
# Processed by: cddbd v1.4PL0 Copyright (c) Steve Scherf et al.
# Submitted via: CDex 1.51
#
DISCID=9908850e
DTITLE=Fats Domino - Walking On Blueberry Hill
DYEAR=1994
DGENRE=Jazz
TTITLE0=Lazy Lady
TTITLE1=There Goes My Heart Again
TTITLE2=Red Sails In The Sunset
TTITLE3=Jambalaya (live)
TTITLE4=When I'm Walking
TTITLE5=Kansas City
TTITLE6=Man That's All
TTITLE7=Blueberry Hill (live)
TTITLE8=The Fat Man
TTITLE9=Bye Baby, Bye Baby
TTITLE10=Sally Was A Good Old Girl
TTITLE11=Monkey Business
TTITLE12=If You Don't Know What Love Is
TTITLE13=Reelin' And Rockin'
EXTD=YEAR: 1994
EXTT0=
EXTT1=
EXTT2=
EXTT3=
EXTT4=
EXTT5=
EXTT6=
EXTT7=
EXTT8=
EXTT9=
EXTT10=
EXTT11=
EXTT12=
EXTT13=
PLAYORDER=
